<svg id="レイヤー_1" data-name="レイヤー 1" xmlns="http://www.w3.org/2000/svg" viewBox="0 0 500 500"><defs><style>.cls-1{fill:#f2f1f6;}</style></defs><path class="cls-1" d="M136,303.47c3.14,15.94-1.12,20.4-7.23,21.61s-11.7-1.08-14.85-17-4.14-39.22,3.45-40.72C125.56,265.73,132.87,287.53,136,303.47Z"/><path class="cls-1" d="M214.87,287.84c3.15,15.94-1.12,20.4-7.22,21.61s-11.71-1.08-14.86-17-4.13-39.22,3.46-40.72C204.41,250.1,211.73,271.9,214.87,287.84Z"/><path class="cls-1" d="M257.4,450.15a149.67,149.67,0,0,1-17.22-1c-20.2-2.4-35.66-8.71-45.89-12.89-13.48-5.51-23.39-11-34.87-17.43-6.28-3.49-15.74-8.77-27.48-16.75a277.47,277.47,0,0,1-25-18.83,239.84,239.84,0,0,1-27.8-28c-.36,2.23-.66,4.78-.9,6.81-1.33,11.26-2.83,24-11.57,27.37a11.63,11.63,0,0,1-4.25.77C47.9,390.12,29.47,366,21.46,346c-4.66-11.57-13.91-39.8.34-53.08,5.11-4.75,13.53-8,20.72-6.63-1.44-5-3.08-10.76-4.44-16.61a185.79,185.79,0,0,1-4.64-31.33c-2.67-39.12,9.87-73.79,20.86-96,11.89-24,24.27-38.66,24.79-39.27a194.24,194.24,0,0,1,73-52.89,5,5,0,1,1,3.85,9.23,184.11,184.11,0,0,0-69.23,50.14c-.48.57-48.1,57.5-43.3,128.09a180.36,180.36,0,0,0,4.36,29.55l0,.13c1.56,6.67,3.52,13.38,5.09,18.77,1,3.39,1.85,6.32,2.38,8.48.6,2.43,1.84,7.48-2.68,9.27-2,.78-4.82.81-7.2-3.49a8.84,8.84,0,0,0-3.16-3.75c-3.5-1.85-10.19.42-13.61,3.61-7.95,7.4-3.84,27.24,2.09,42,9.4,23.36,27.46,39.64,32.35,37.76,3.09-1.18,4.52-13.35,5.21-19.2,1.2-10.23,2.25-19.07,9.44-19.69l2.68-.24L82.06,343a232.09,232.09,0,0,0,31.33,32.59,266.57,266.57,0,0,0,24.18,18.17c11.37,7.74,20.6,12.88,26.7,16.28,11.67,6.5,20.88,11.63,33.81,16.91,10.3,4.21,24.42,10,43.28,12.22a115.08,115.08,0,0,0,25.31.5l-1.12-.64c-6.75-3.83-16-9.08-16.24-18.23-.22-9.33,9.45-15.63,12.42-17.33,4-2.31,11.16-4.6,30.93-1.73,4.34.62,6.48,1.09,12.2,2.34,2.14.47,4.8,1.06,8.3,1.8,17.31,3.71,25.22,5.37,31.38,5.85,7.17.57,14.58,1.15,23.72-.87A66,66,0,0,0,387,403.68c-3-.56-7.19-1.38-12.53-2.82-14.58-3.95-19.94-7.67-22.71-10.12-4.32-3.84-11.24-11.49-9.18-19.73a12.15,12.15,0,0,1,2.63-5.1l2.17-2.38c6.48-7,17.31-18.86,25.92-32.59,12.53-20,27.85-52.5,29.63-94,.91-21.28,3-71.13-32.32-113.72-24.19-29.14-54.82-46-86.23-47.53-10.48-.5-35-1.68-56.56,15.24C222.62,95,197,117,199.74,152.66c3,38.55,37.38,56.73,37.73,56.91,34.37,17.74,67-1.41,68.32-2.24A5,5,0,0,1,311,215.9c-1.57.94-38.79,22.83-78.07,2.55-1.62-.83-39.69-21-43.11-65-3.16-40.7,26-65.77,31.84-70.38,24.46-19.21,51.62-17.91,63.22-17.35,34.25,1.64,67.43,19.8,93.44,51.12,37.83,45.56,35.5,100,34.62,120.54-1.88,43.69-18,77.89-31.15,98.89-9.09,14.49-20.31,26.72-27,34l-2.14,2.34a3.69,3.69,0,0,0-.33.8c-.53,2.12,2,6.16,6.11,9.82,1.16,1,4.7,4.16,18.7,7.95,5.86,1.59,10.09,2.35,13.18,2.9,4.95.89,9.22,1.66,10.21,6.27,2.32,10.8-23.1,18.73-30,20.26-10.6,2.34-19.14,1.66-26.66,1.07-7.08-.55-16.18-2.5-32.7-6-3.51-.75-6.19-1.34-8.34-1.81-5.61-1.23-7.5-1.64-11.5-2.22-12.52-1.81-20.77-1.64-24.51.51s-7.46,5.72-7.4,8.42c.09,3.48,6.76,7.27,11.18,9.77,5.42,3.08,11,6.26,9.85,11.86-1.26,6-9,7.28-16.49,7.76C261.85,450.08,259.68,450.15,257.4,450.15Z"/><path class="cls-1" d="M309.21,344.53a21,21,0,0,1-6-1c-12-3.61-29.75-18.16-39-38a81.65,81.65,0,0,1-7.36-36.29c.5-13.46,4.75-23,12-26.81,3.52-1.87,6.48-1.66,10.23-1.4,2.29.17,5.15.37,9.45.32a114.59,114.59,0,0,0,24.37-2.94,5.5,5.5,0,1,1,2.48,10.71,126.17,126.17,0,0,1-26.71,3.23c-4.76.06-8-.17-10.38-.34-3.28-.24-3.66-.2-4.28.13-3.4,1.81-5.81,8.68-6.14,17.51a71.44,71.44,0,0,0,6.34,31.25c7.46,16,22,28.87,31.84,32,2.6.84,3.91.63,4.15.49,1-1.14.58-7.27.36-10.57-.57-8.41-1.28-18.88,6.7-24.2,6.61-4.42,14.41-2,21.29.17,5.55,1.73,10.79,3.37,13.81,1.23,2.12-1.49,3.46-4.82,3.86-9.62a5.5,5.5,0,1,1,11,.93c-.69,8.25-3.55,14.2-8.47,17.68-7.46,5.27-16.33,2.5-23.44.28-4.75-1.49-9.66-3-11.91-1.52-2.67,1.78-2.2,8.73-1.83,14.31.53,7.76,1.12,16.55-5.55,20.67A12.54,12.54,0,0,1,309.21,344.53Z"/><path class="cls-1" d="M453.22,408.2A13.79,13.79,0,1,1,467,422,13.47,13.47,0,0,1,453.22,408.2Z"/></svg>